<svg width="18" height="22" viewBox="0 0 18 22" fill="none" xmlns="http://www.w3.org/2000/svg">
<path d="M9 13V7.5C9 6.67157 9.67157 6 10.5 6C11.3284 6 12 6.67157 12 7.5V13C12 14.6569 10.6569 16 9 16C7.34315 16 6 14.6569 6 13V9M5.8 21H12.2C13.8802 21 14.7202 21 15.362 20.673C15.9265 20.3854 16.3854 19.9265 16.673 19.362C17 18.7202 17 17.8802 17 16.2V5.8C17 4.11984 17 3.27976 16.673 2.63803C16.3854 2.07354 15.9265 1.6146 15.362 1.32698C14.7202 1 13.8802 1 12.2 1H5.8C4.11984 1 3.27976 1 2.63803 1.32698C2.07354 1.6146 1.6146 2.07354 1.32698 2.63803C1 3.27976 1 4.11984 1 5.8V16.2C1 17.8802 1 18.7202 1.32698 19.362C1.6146 19.9265 2.07354 20.3854 2.63803 20.673C3.27976 21 4.11984 21 5.8 21Z" stroke="#667085" stroke-width="2" stroke-linecap="round" stroke-linejoin="round"/>
</svg>
