<svg width="20" height="20" viewBox="0 0 20 20" fill="none" xmlns="http://www.w3.org/2000/svg">
<g clip-path="url(#clip0_1479_25393)">
<path d="M19.3779 13.4786C19.7798 12.3954 19.9998 11.2236 19.9998 10.0004C19.9998 8.7772 19.7798 7.60544 19.3779 6.52216L9.99985 5.65259L0.62184 6.52216C0.219886 7.60544 -0.000152588 8.7772 -0.000152588 10.0004C-0.000152588 11.2236 0.219886 12.3954 0.62184 13.4786L9.99985 14.3482L19.3779 13.4786Z" fill="#6DA544"/>
<path d="M19.3779 6.52168C17.965 2.71367 14.2996 -7.62939e-05 9.99993 -7.62939e-05C5.70028 -7.62939e-05 2.03486 2.71367 0.621925 6.52168H19.3779Z" fill="#FFDA44"/>
<path d="M9.9999 19.9992C14.2995 19.9992 17.965 17.2855 19.3779 13.4775H0.621887C2.03482 17.2855 5.70025 19.9992 9.9999 19.9992Z" fill="#D80027"/>
<path d="M16.8577 8.4608H11.6191L10.0003 3.47865L8.38144 8.4608H3.14289L7.38098 11.5399L5.76215 16.5222L10.0003 13.4787L14.2384 16.5221L12.6196 11.5399L16.8577 8.4608Z" fill="#F0F0F0"/>
</g>
<defs>
<clipPath id="clip0_1479_25393">
<rect width="20" height="20" fill="white"/>
</clipPath>
</defs>
</svg>
