<svg width="66" height="66" viewBox="0 0 66 66" fill="none" xmlns="http://www.w3.org/2000/svg">
<rect x="5" y="5" width="56" height="56" rx="28" fill="#F5F8FF"/>
<rect x="5" y="5" width="56" height="56" rx="28" stroke="#FCFCFD" stroke-width="10"/>
<path d="M21.334 27.1665L30.8597 33.8345C31.6311 34.3745 32.0168 34.6445 32.4363 34.749C32.8069 34.8414 33.1944 34.8414 33.565 34.749C33.9845 34.6445 34.3702 34.3745 35.1416 33.8345L44.6673 27.1665M26.934 42.3332H39.0673C41.0275 42.3332 42.0076 42.3332 42.7563 41.9517C43.4149 41.6161 43.9503 41.0807 44.2858 40.4221C44.6673 39.6734 44.6673 38.6934 44.6673 36.7332V29.2665C44.6673 27.3063 44.6673 26.3262 44.2858 25.5775C43.9503 24.919 43.4149 24.3835 42.7563 24.048C42.0076 23.6665 41.0275 23.6665 39.0673 23.6665H26.934C24.9738 23.6665 23.9937 23.6665 23.245 24.048C22.5865 24.3835 22.051 24.919 21.7155 25.5775C21.334 26.3262 21.334 27.3063 21.334 29.2665V36.7332C21.334 38.6934 21.334 39.6734 21.7155 40.4221C22.051 41.0807 22.5865 41.6161 23.245 41.9517C23.9937 42.3332 24.9738 42.3332 26.934 42.3332Z" stroke="#197CC0" stroke-width="2" stroke-linecap="round" stroke-linejoin="round"/>
</svg>
