<svg width="16" height="14" viewBox="0 0 16 14" fill="none" xmlns="http://www.w3.org/2000/svg">
<path d="M6.99833 6.99986H3.33166M3.27523 7.19419L1.71861 11.844C1.59632 12.2093 1.53518 12.3919 1.57906 12.5044C1.61717 12.6021 1.69901 12.6761 1.8 12.7043C1.91629 12.7368 2.09193 12.6577 2.44322 12.4997L13.5842 7.48622C13.9271 7.33192 14.0985 7.25477 14.1515 7.1476C14.1976 7.05449 14.1976 6.94524 14.1515 6.85212C14.0985 6.74495 13.9271 6.6678 13.5842 6.5135L2.43934 1.49834C2.08911 1.34074 1.91399 1.26194 1.79782 1.29426C1.69692 1.32234 1.61509 1.39619 1.57685 1.49369C1.53282 1.60595 1.59331 1.7882 1.7143 2.15271L3.27566 6.85688C3.29644 6.91948 3.30683 6.95079 3.31093 6.9828C3.31457 7.01121 3.31453 7.03997 3.31082 7.06837C3.30664 7.10037 3.29617 7.13164 3.27523 7.19419Z" stroke="#98A2B3" stroke-width="2" stroke-linecap="round" stroke-linejoin="round"/>
</svg>
