<svg width="195" height="186" viewBox="0 0 195 186" fill="none" xmlns="http://www.w3.org/2000/svg">
<path fill-rule="evenodd" clip-rule="evenodd" d="M58.1024 218.366C37.4999 225.585 11.015 237.349 -6.05249 223.742C-24.0602 209.386 -7.37683 177.049 -18.8004 157.056C-30.1361 137.218 -65.0839 135.092 -69.5142 112.679C-73.7089 91.4588 -49.6644 75.4665 -38.6037 56.8743C-27.6971 38.5411 -23.8155 13.4574 -4.76643 3.84263C14.307 -5.78445 36.9033 5.38669 58.1024 8.06304C76.7219 10.4137 96.1909 9.22581 112.425 18.6378C128.645 28.0419 136.17 46.4044 148.536 60.494C164.16 78.2958 196.278 89.0354 194.961 112.679C193.613 136.864 161.996 146.698 142.903 161.614C129.821 171.833 114.454 177.117 100.658 186.35C85.6491 196.394 75.1475 212.393 58.1024 218.366Z" fill="#B9E6FE"/>
</svg>
