<svg width="185" height="180" viewBox="0 0 185 180" fill="none" xmlns="http://www.w3.org/2000/svg">
<path fill-rule="evenodd" clip-rule="evenodd" d="M48.1024 168.366C27.4999 175.585 1.01503 187.349 -16.0525 173.742C-34.0602 159.386 -17.3768 127.049 -28.8004 107.056C-40.1361 87.2182 -75.0839 85.0916 -79.5142 62.6792C-83.7089 41.4588 -59.6644 25.4665 -48.6037 6.87434C-37.6971 -11.4589 -33.8155 -36.5426 -14.7664 -46.1574C4.307 -55.7845 26.9033 -44.6133 48.1024 -41.937C66.7219 -39.5863 86.1909 -40.7742 102.425 -31.3622C118.645 -21.9581 126.17 -3.59556 138.536 10.494C154.16 28.2958 186.278 39.0354 184.961 62.6792C183.613 86.8635 151.996 96.6975 132.903 111.614C119.821 121.833 104.454 127.117 90.6577 136.35C75.6491 146.394 65.1475 162.393 48.1024 168.366Z" fill="#B9E6FE"/>
</svg>
