<svg width="66" height="66" viewBox="0 0 66 66" fill="none" xmlns="http://www.w3.org/2000/svg">
<rect x="5" y="5" width="56" height="56" rx="28" fill="#F5F8FF"/>
<rect x="5" y="5" width="56" height="56" rx="28" stroke="#FCFCFD" stroke-width="10"/>
<path d="M44.6673 31.9335V33.0068C44.6659 35.5227 43.8512 37.9706 42.3449 39.9856C40.8385 42.0006 38.7211 43.4747 36.3086 44.1881C33.896 44.9014 31.3175 44.8157 28.9575 43.9439C26.5976 43.072 24.5827 41.4606 23.2134 39.3501C21.8441 37.2395 21.1937 34.7429 21.3593 32.2325C21.5248 29.7222 22.4974 27.3326 24.132 25.4201C25.7666 23.5076 27.9756 22.1748 30.4295 21.6203C32.8835 21.0659 35.451 21.3196 37.749 22.3435M44.6673 23.6668L33.0007 35.3452L29.5007 31.8452" stroke="#197CC0" stroke-width="2" stroke-linecap="round" stroke-linejoin="round"/>
</svg>
