<svg width="19" height="14" viewBox="0 0 19 14" fill="none" xmlns="http://www.w3.org/2000/svg">
<path d="M1.51677 7.72135C1.40328 7.54165 1.34654 7.4518 1.31477 7.31321C1.29091 7.20912 1.29091 7.04495 1.31477 6.94085C1.34654 6.80227 1.40328 6.71242 1.51677 6.53272C2.45461 5.04774 5.24617 1.2937 9.50034 1.2937C13.7545 1.2937 16.5461 5.04773 17.4839 6.53272C17.5974 6.71242 17.6541 6.80227 17.6859 6.94085C17.7098 7.04495 17.7098 7.20912 17.6859 7.31321C17.6541 7.4518 17.5974 7.54165 17.4839 7.72135C16.5461 9.20633 13.7545 12.9604 9.50034 12.9604C5.24617 12.9604 2.45461 9.20633 1.51677 7.72135Z" stroke="#197CC0" stroke-width="1.66667" stroke-linecap="round" stroke-linejoin="round"/>
<path d="M9.50034 9.62703C10.881 9.62703 12.0003 8.50775 12.0003 7.12703C12.0003 5.74632 10.881 4.62703 9.50034 4.62703C8.11962 4.62703 7.00034 5.74632 7.00034 7.12703C7.00034 8.50775 8.11962 9.62703 9.50034 9.62703Z" stroke="#197CC0" stroke-width="1.66667" stroke-linecap="round" stroke-linejoin="round"/>
</svg>
