<svg width="20" height="20" viewBox="0 0 20 20" fill="none" xmlns="http://www.w3.org/2000/svg">
<g clip-path="url(#clip0_1204_17983)">
<path d="M4.16602 11.9053C2.62321 12.5859 1.66602 13.5343 1.66602 14.5834C1.66602 16.6544 5.39698 18.3334 9.99935 18.3334C14.6017 18.3334 18.3327 16.6544 18.3327 14.5834C18.3327 13.5343 17.3755 12.5859 15.8327 11.9053M14.9993 6.66669C14.9993 10.0531 11.2493 11.6667 9.99935 14.1667C8.74935 11.6667 4.99935 10.0531 4.99935 6.66669C4.99935 3.90526 7.23793 1.66669 9.99935 1.66669C12.7608 1.66669 14.9993 3.90526 14.9993 6.66669ZM10.8327 6.66669C10.8327 7.12692 10.4596 7.50002 9.99935 7.50002C9.53911 7.50002 9.16602 7.12692 9.16602 6.66669C9.16602 6.20645 9.53911 5.83335 9.99935 5.83335C10.4596 5.83335 10.8327 6.20645 10.8327 6.66669Z" stroke="#197CC0" stroke-width="1.66667" stroke-linecap="round" stroke-linejoin="round"/>
</g>
<defs>
<clipPath id="clip0_1204_17983">
<rect width="20" height="20" fill="white"/>
</clipPath>
</defs>
</svg>
