  <svg
      width="40"
      height="40"
      viewBox="0 0 40 40"
      fill="none"
      xmlns="http://www.w3.org/2000/svg"
    >
      <rect width="40" height="40" rx="20" fill="#F2F4F7" />
      <path
        d="M27.4997 19.5833C27.4997 23.4953 24.3284 26.6667 20.4163 26.6667C19.519 26.6667 18.6607 26.4998 17.8706 26.1954C17.7262 26.1398 17.654 26.112 17.5965 26.0987C17.54 26.0857 17.4991 26.0803 17.4412 26.0781C17.3823 26.0758 17.3177 26.0825 17.1885 26.0958L12.921 26.537C12.5141 26.579 12.3106 26.6001 12.1906 26.5269C12.0861 26.4631 12.0149 26.3566 11.996 26.2356C11.9742 26.0968 12.0714 25.9168 12.2659 25.557L13.6289 23.034C13.7412 22.8262 13.7973 22.7223 13.8227 22.6225C13.8478 22.5238 13.8539 22.4527 13.8459 22.3512C13.8377 22.2484 13.7926 22.1147 13.7025 21.8472C13.4629 21.1363 13.333 20.375 13.333 19.5833C13.333 15.6713 16.5043 12.5 20.4163 12.5C24.3284 12.5 27.4997 15.6713 27.4997 19.5833Z"
        stroke="#475467"
        stroke-width="2"
        stroke-linecap="round"
        stroke-linejoin="round"
      />
    </svg>