  <svg
      width="40"
      height="40"
      viewBox="0 0 40 40"
      fill="none"
      xmlns="http://www.w3.org/2000/svg"
    >
      <rect width="40" height="40" rx="20" fill="#F2F4F7" />
      <path
        d="M17.7952 27.5003C18.3828 28.019 19.1547 28.3337 20.0001 28.3337C20.8454 28.3337 21.6173 28.019 22.2049 27.5003M25.0001 16.667C25.0001 15.3409 24.4733 14.0691 23.5356 13.1315C22.5979 12.1938 21.3261 11.667 20.0001 11.667C18.674 11.667 17.4022 12.1938 16.4645 13.1315C15.5268 14.0691 15.0001 15.3409 15.0001 16.667C15.0001 19.2421 14.3504 21.0053 13.6248 22.1715C13.0127 23.1552 12.7066 23.6471 12.7178 23.7843C12.7303 23.9362 12.7624 23.9942 12.8849 24.085C12.9954 24.167 13.4939 24.167 14.4908 24.167H25.5093C26.5062 24.167 27.0047 24.167 27.1152 24.085C27.2377 23.9942 27.2699 23.9362 27.2823 23.7843C27.2935 23.6471 26.9875 23.1552 26.3753 22.1715C25.6497 21.0053 25.0001 19.2421 25.0001 16.667Z"
        stroke="#475467"
        stroke-width="2"
        stroke-linecap="round"
        stroke-linejoin="round"
      />
    </svg>