<svg width="20" height="20" viewBox="0 0 20 20" fill="none" xmlns="http://www.w3.org/2000/svg">
<path d="M8.33203 13.3333H11.6654M7.33203 18.3333H12.6654C14.0655 18.3333 14.7656 18.3333 15.3003 18.0608C15.7707 17.8211 16.1532 17.4387 16.3929 16.9683C16.6654 16.4335 16.6654 15.7334 16.6654 14.3333V5.66663C16.6654 4.26649 16.6654 3.56643 16.3929 3.03165C16.1532 2.56124 15.7707 2.17879 15.3003 1.93911C14.7656 1.66663 14.0655 1.66663 12.6654 1.66663H7.33203C5.9319 1.66663 5.23183 1.66663 4.69705 1.93911C4.22665 2.17879 3.8442 2.56124 3.60451 3.03165C3.33203 3.56643 3.33203 4.26649 3.33203 5.66663V14.3333C3.33203 15.7334 3.33203 16.4335 3.60451 16.9683C3.8442 17.4387 4.22665 17.8211 4.69705 18.0608C5.23183 18.3333 5.9319 18.3333 7.33203 18.3333ZM12.4987 7.49996C12.4987 8.88067 11.3794 9.99996 9.9987 9.99996C8.61799 9.99996 7.4987 8.88067 7.4987 7.49996C7.4987 6.11925 8.61799 4.99996 9.9987 4.99996C11.3794 4.99996 12.4987 6.11925 12.4987 7.49996Z" stroke="white" stroke-width="1.66667" stroke-linecap="round" stroke-linejoin="round"/>
</svg>
