   <svg
      width="40"
      height="40"
      viewBox="0 0 40 40"
      fill="none"
      xmlns="http://www.w3.org/2000/svg"
    >
      <rect width="40" height="40" rx="20" fill="#F2F4F7" />
      <path
        d="M26.6667 27.5C26.6667 26.337 26.6667 25.7555 26.5232 25.2824C26.2 24.217 25.3663 23.3834 24.301 23.0602C23.8278 22.9167 23.2463 22.9167 22.0834 22.9167H17.9167C16.7537 22.9167 16.1723 22.9167 15.6991 23.0602C14.6338 23.3834 13.8001 24.217 13.4769 25.2824C13.3334 25.7555 13.3334 26.337 13.3334 27.5M23.75 16.25C23.75 18.3211 22.0711 20 20 20C17.929 20 16.25 18.3211 16.25 16.25C16.25 14.1789 17.929 12.5 20 12.5C22.0711 12.5 23.75 14.1789 23.75 16.25Z"
        stroke="#475467"
        stroke-width="2"
        stroke-linecap="round"
        stroke-linejoin="round"
      />
    </svg>