   <svg
      width="40"
      height="40"
      viewBox="0 0 40 40"
      fill="none"
      xmlns="http://www.w3.org/2000/svg"
    >
      <rect width="40" height="40" rx="20" fill="#F2F4F7" />
      <path
        d="M11.6667 19.9997H14.9017C15.4727 19.9997 15.9947 20.3223 16.25 20.833C16.5054 21.3437 17.0274 21.6663 17.5984 21.6663H22.4017C22.9727 21.6663 23.4947 21.3437 23.75 20.833C24.0054 20.3223 24.5274 19.9997 25.0984 19.9997H28.3334M11.6667 19.9997V17.333C11.6667 15.9329 11.6667 15.2328 11.9392 14.698C12.1789 14.2276 12.5613 13.8452 13.0317 13.6055C13.5665 13.333 14.2666 13.333 15.6667 13.333H24.3334C25.7335 13.333 26.4336 13.333 26.9683 13.6055C27.4387 13.8452 27.8212 14.2276 28.0609 14.698C28.3334 15.2328 28.3334 15.9329 28.3334 17.333V19.9997M11.6667 19.9997V22.6663C11.6667 24.0665 11.6667 24.7665 11.9392 25.3013C12.1789 25.7717 12.5613 26.1542 13.0317 26.3939C13.5665 26.6663 14.2666 26.6663 15.6667 26.6663H24.3334C25.7335 26.6663 26.4336 26.6663 26.9683 26.3939C27.4387 26.1542 27.8212 25.7717 28.0609 25.3013C28.3334 24.7665 28.3334 24.0665 28.3334 22.6663V19.9997"
        stroke="#475467"
        stroke-width="2"
        stroke-linecap="round"
        stroke-linejoin="round"
      />
    </svg>