<svg width="20" height="20" viewBox="0 0 20 20" fill="none" xmlns="http://www.w3.org/2000/svg">
<path d="M5.83268 18.3333V9.16663M1.66602 10.8333V16.6666C1.66602 17.5871 2.41221 18.3333 3.33268 18.3333H14.5212C15.7551 18.3333 16.8045 17.433 16.9921 16.2134L17.8896 10.3801C18.1226 8.86571 16.9509 7.49996 15.4187 7.49996H12.4993C12.0391 7.49996 11.666 7.12686 11.666 6.66663V3.72149C11.666 2.58662 10.746 1.66663 9.61115 1.66663C9.34046 1.66663 9.09517 1.82604 8.98523 2.0734L6.05263 8.67174C5.91888 8.97268 5.62045 9.16663 5.29112 9.16663H3.33268C2.41221 9.16663 1.66602 9.91282 1.66602 10.8333Z" stroke="#197CC0" stroke-width="1.66667" stroke-linecap="round" stroke-linejoin="round"/>
</svg>